<?xml version="1.0" encoding="utf-8"?>
<!-- Generator: Adobe Illustrator 25.4.1, SVG Export Plug-In . SVG Version: 6.00 Build 0)  -->
<svg version="1.1" id="Layer_1" xmlns="http://www.w3.org/2000/svg" xmlns:xlink="http://www.w3.org/1999/xlink" x="0px" y="0px"
	 viewBox="0 0 420 106" style="enable-background:new 0 0 420 106;" xml:space="preserve">
<style type="text/css">
	.st0{fill:#EB6011;}
</style>
<g>
	<path class="st0" d="M153.9,81.7c-0.3,0-0.6,0-0.7,0.3c-0.1,0.1-0.3,0.4-0.4,0.7c-0.6,2-1.3,4-2,6.2c-0.7,2.2-1.6,4.3-2.3,6.3
		c-0.4-1-0.7-2-1.2-3.3c-0.4-1.2-0.9-2.3-1.2-3.5c-0.4-1.2-0.9-2.3-1.2-3.5c-0.4-1.2-0.7-2.2-1-3c-0.1,0-0.3-0.1-0.4-0.1
		c-0.3-0.1-0.4-0.1-0.7-0.1s-0.7,0-1,0.3c-0.3,0.3-0.6,0.6-0.6,1c-0.4,1.3-0.7,2.4-1.2,3.6c-0.3,1.2-0.7,2.2-1,3.2
		c-0.3,1-0.7,2-1,2.9c-0.3,0.9-0.7,1.9-1,2.7c-0.3-1-0.7-2-1.2-3.3c-0.4-1.2-0.9-2.3-1.3-3.6c-0.4-1.2-0.9-2.3-1.2-3.5
		c-0.4-1.2-0.7-2.2-0.9-3c-0.1,0-0.1,0-0.3-0.1c-0.1,0-0.4,0-0.6,0c-0.3,0-0.6,0.1-0.9,0.3c-0.1,0.1-0.3,0.4-0.3,0.7s0,0.6,0.1,0.7
		c0.1,0.3,0.1,0.6,0.3,0.7c0,0.1,0.3,0.7,0.6,1.6c0.3,0.9,0.7,1.9,1.2,3.2s1,2.6,1.4,4c0.6,1.4,1,2.7,1.6,4h2.4
		c0.1-0.6,0.4-1.3,0.9-2.3c0.3-1,0.7-2,1.2-3.2c0.4-1.2,0.9-2.4,1.2-3.6c0.4-1.3,0.7-2.4,1.2-3.6c0.4,1.2,0.7,2.3,1.2,3.6
		c0.4,1.3,0.9,2.4,1.3,3.7c0.4,1.2,0.9,2.3,1.2,3.3s0.6,1.7,0.9,2.3h2.4c0.4-1.3,1-2.6,1.6-4c0.6-1.4,1.2-2.9,1.6-4.2
		c0.6-1.4,1-2.7,1.4-3.9c0.4-1.2,0.7-2.2,0.9-2.9c-0.1-0.1-0.3-0.1-0.3-0.3C154.5,81.7,154.2,81.7,153.9,81.7z"/>
	<path class="st0" d="M169.2,82.5c-0.6-0.4-1.3-0.9-2-1c-0.9-0.3-1.9-0.4-2.7-0.3c-1.2,0-2.3,0.1-3.5,0.6c-1,0.4-1.9,1-2.7,1.7
		c-0.7,0.7-1.3,1.6-1.7,2.6c-0.4,1.2-0.6,2.3-0.6,3.5s0.1,2.3,0.7,3.5c0.4,1,1,1.7,1.7,2.4s1.7,1.2,2.6,1.6c1,0.3,2.2,0.6,3.2,0.6
		c0.7,0,1.3,0,2-0.1c0.6-0.1,1.2-0.3,1.6-0.4c0.4-0.1,0.9-0.3,1.2-0.6c0.3-0.1,0.6-0.3,0.7-0.4l-0.9-1.4c-0.6,0.3-1.2,0.6-1.7,0.9
		c-0.9,0.3-1.7,0.4-2.7,0.4c-1.6,0.1-3.2-0.4-4.3-1.3c-1.2-0.9-1.9-2.3-2-3.7l0,0c0.6,0,1.2,0,1.7,0.1c0.6,0,1.2,0,1.9,0
		c1.4,0,2.9-0.1,4.3-0.3c1-0.1,1.9-0.6,2.7-1c0.6-0.3,1.2-0.9,1.4-1.4c0.3-0.6,0.4-1.3,0.4-1.9c0-0.7-0.1-1.3-0.4-1.9
		C170,83.5,169.6,83,169.2,82.5z M168.3,87.1c-0.3,0.4-0.6,0.9-1.2,1c-0.7,0.3-1.4,0.6-2.2,0.7c-1.2,0.1-2.3,0.3-3.5,0.3
		c-0.6,0-1.2,0-1.7,0s-1,0-1.6-0.1l0,0c0-0.9,0.1-1.6,0.4-2.3c0.3-0.7,0.7-1.4,1.2-2c0.6-0.6,1.2-1,1.9-1.4c0.9-0.3,1.7-0.6,2.6-0.6
		c0.6,0,1,0,1.6,0.1c0.4,0.1,1,0.3,1.4,0.6c0.4,0.3,0.7,0.6,1,1c0.3,0.4,0.4,1,0.3,1.4C168.6,86.3,168.5,86.7,168.3,87.1z"/>
	<path class="st0" d="M192.6,81.8c-1-0.4-2.2-0.7-3.3-0.6c-1,0-2,0.1-2.9,0.4c-0.9,0.3-1.7,0.7-2.3,1.3c-0.7,0.6-1.3,1.3-1.7,2
		c-0.4,0.9-0.9,1.7-1,2.7c0,0.3-0.1,0.6-0.1,1s0,0.9,0,1.3l0,0v13.2h2v-8.8c0.6,0.9,1.4,1.7,2.4,2.2c1.2,0.6,2.3,0.9,3.6,0.9
		c1.2,0,2.3-0.1,3.3-0.6c1-0.4,1.9-1,2.6-1.7c0.7-0.7,1.3-1.6,1.7-2.6c0.9-2,0.9-4.3,0-6.3C196.1,84.3,194.6,82.7,192.6,81.8z
		 M194.9,91.9c-0.3,0.7-0.7,1.4-1.2,2c-0.6,0.6-1.2,1-1.9,1.3c-0.9,0.3-1.6,0.4-2.4,0.4c-0.9,0-1.7-0.1-2.4-0.6
		c-1.4-0.7-2.6-1.9-3.2-3.5c-0.3-0.9-0.4-1.6-0.4-2.4s0.1-1.7,0.4-2.6c0.3-0.7,0.7-1.4,1.2-2c0.6-0.6,1.2-1,1.9-1.3
		c0.7-0.3,1.6-0.4,2.4-0.4c0.9,0,1.7,0.1,2.4,0.4c1.4,0.6,2.6,1.9,3.2,3.3c0.3,0.9,0.4,1.6,0.4,2.4C195.3,90.2,195.2,91,194.9,91.9z
		"/>
	<path class="st0" d="M214.2,81.7c-0.1,0-0.1,0-0.3,0c-0.6,0-1,0.6-0.9,1l0,0v7.5c0.1,1.4-0.4,2.9-1.3,4c-1,1-2.4,1.6-3.9,1.4
		c-1.4,0.1-2.9-0.4-3.9-1.4c-0.9-1.2-1.3-2.6-1.3-4v-8.3c-0.1,0-0.3-0.1-0.4-0.1c-0.1,0-0.4-0.1-0.6-0.1c-0.1,0-0.1,0-0.3,0
		c-0.6,0-1,0.6-0.9,1v8.2c0,0.9,0.1,1.9,0.4,2.7c0.3,0.9,0.9,1.4,1.4,2.2c0.7,0.6,1.4,1,2.3,1.3c1,0.3,2,0.4,3,0.4c1,0,2-0.1,3-0.4
		c0.9-0.3,1.6-0.7,2.3-1.3c0.6-0.6,1.2-1.3,1.4-2.2c0.3-0.9,0.6-1.7,0.4-2.7v-9.1c-0.1,0-0.3-0.1-0.4-0.1
		C214.5,81.7,214.3,81.7,214.2,81.7z"/>
	<path class="st0" d="M226.1,95.3c-0.6,0.1-1.2,0.3-1.7,0.3c-0.9,0-1.7-0.1-2.3-0.7c-0.7-0.6-1-1.6-0.9-2.4v-9.1l0,0h6.5
		c0-0.1,0.1-0.3,0.1-0.4c0-0.1,0-0.3,0-0.4c0-0.3-0.1-0.6-0.3-0.7c-0.3-0.3-0.6-0.3-0.9-0.3h-5.5v-4c-0.1,0-0.3-0.1-0.4-0.1
		s-0.4-0.1-0.6-0.1c-0.1,0-0.1,0-0.3,0c-0.6,0-1,0.6-0.9,1v14.4c0,0.6,0.1,1.3,0.3,1.9c0.1,0.6,0.4,1,0.9,1.4c0.4,0.4,0.9,0.7,1.4,1
		c0.7,0.3,1.4,0.3,2.2,0.3c0.6,0,1,0,1.6-0.1c0.4-0.1,0.9-0.1,1.3-0.3c0.3-0.1,0.6-0.3,1-0.4c0.1-0.1,0.4-0.3,0.6-0.4l-0.9-1.3
		C227,95,226.6,95.2,226.1,95.3z"/>
	<path class="st0" d="M249.1,81.8c-1-0.4-2.2-0.7-3.3-0.6c-1,0-2,0.1-2.9,0.4c-0.9,0.3-1.7,0.7-2.3,1.3c-0.7,0.6-1.3,1.3-1.7,2
		c-0.4,0.9-0.9,1.7-1,2.7c0,0.3-0.1,0.6-0.1,1s0,0.9,0,1.3l0,0v13.2h2v-8.8c0.6,0.9,1.4,1.7,2.4,2.2c1.2,0.6,2.3,0.9,3.6,0.9
		c1.2,0,2.3-0.1,3.3-0.6c1-0.4,1.9-1,2.6-1.7c0.7-0.7,1.3-1.6,1.7-2.6c0.9-2,0.9-4.3,0-6.3C252.7,84.3,251.2,82.7,249.1,81.8z
		 M251.4,91.9c-0.3,0.7-0.7,1.4-1.2,2c-0.6,0.6-1.2,1-1.9,1.3c-0.9,0.3-1.6,0.4-2.4,0.4c-0.9,0-1.7-0.1-2.4-0.6
		c-1.4-0.7-2.6-1.9-3.2-3.5c-0.3-0.9-0.4-1.6-0.4-2.4s0.1-1.7,0.4-2.6c0.3-0.7,0.7-1.4,1.2-2c0.6-0.6,1.2-1,1.9-1.3
		c0.7-0.3,1.6-0.4,2.4-0.4c0.9,0,1.7,0.1,2.4,0.4c1.4,0.6,2.6,1.9,3.2,3.3c0.3,0.9,0.4,1.6,0.4,2.4l0,0
		C251.9,90.2,251.7,91,251.4,91.9z"/>
	<path class="st0" d="M268.6,82.7c-1.7-1.2-3.7-1.6-5.8-1.6c-1,0-1.9,0.1-2.9,0.3c-0.4,0.1-1,0.3-1.4,0.6c-0.1,0.1-0.3,0.3-0.4,0.4
		c-0.1,0.1-0.1,0.4-0.1,0.6c0,0.3,0,0.4,0.1,0.6c0.1,0.1,0.3,0.3,0.4,0.4c0.4-0.3,1-0.6,1.4-0.9c0.9-0.3,1.9-0.4,2.9-0.4l0,0
		c0.7,0,1.4,0,2.2,0.1c0.7,0.1,1.3,0.4,1.9,0.7c0.6,0.4,1,0.9,1.3,1.4c0.3,0.7,0.6,1.6,0.4,2.3v0.1l-0.9-0.1c-0.4,0-0.7-0.1-1.2-0.1
		l-1.4-0.1c-0.4,0-1,0-1.4,0c-1.2,0-2.3,0.1-3.5,0.4c-0.9,0.1-1.6,0.6-2.2,1c-0.6,0.4-1,1-1.2,1.6c-0.3,0.7-0.3,1.3-0.3,2
		c0,0.6,0.1,1.2,0.3,1.7c0.1,0.6,0.6,1.2,1.2,1.6c0.7,0.6,1.4,0.9,2.3,1.2c1.3,0.3,2.6,0.4,4,0.4s2.7,0,3.9-0.1
		c1.2-0.1,2-0.3,2.6-0.3v-9.3C270.7,85.8,270,84,268.6,82.7z M267.3,95.6c-1,0.1-2,0.1-3,0.1c-1.6,0.1-3-0.1-4.5-0.9
		c-0.9-0.6-1.4-1.4-1.3-2.4c0-0.6,0.1-1.2,0.3-1.6c0.3-0.4,0.6-0.9,1-1c0.4-0.3,1-0.4,1.6-0.6c0.7-0.1,1.4-0.1,2.2-0.1
		c1.2,0,2.3,0,3.6,0.1c0.9,0.1,1.3,0.1,1.4,0.3v5.8C268.3,95.5,267.8,95.6,267.3,95.6z"/>
	<path class="st0" d="M281.6,95.3c-0.6,0.1-1.2,0.3-1.7,0.3c-0.9,0-1.7-0.1-2.3-0.7c-0.7-0.6-1-1.6-0.9-2.4v-9.1l0,0h6.5
		c0-0.1,0.1-0.3,0.1-0.4c0-0.1,0-0.3,0-0.4c0-0.3-0.1-0.6-0.3-0.7c-0.3-0.3-0.6-0.3-0.9-0.3h-5.5v-4c-0.1,0-0.3-0.1-0.4-0.1
		s-0.4-0.1-0.6-0.1c-0.1,0-0.1,0-0.3,0c-0.6,0-1,0.6-0.9,1v14.4c0,0.6,0.1,1.3,0.3,1.9s0.4,1,0.9,1.4c0.4,0.4,0.9,0.7,1.4,1
		c0.7,0.3,1.4,0.3,2.2,0.3c0.6,0,1,0,1.6-0.1c0.4-0.1,0.9-0.1,1.3-0.3c0.3-0.1,0.6-0.3,1-0.4c0.1-0.1,0.4-0.3,0.6-0.4l-0.9-1.3
		C282.5,95,282.1,95.2,281.6,95.3z"/>
	<path class="st0" d="M286.8,74.8L286.8,74.8c-0.9,0-1.4,0.7-1.4,1.4c0,0.4,0.1,0.7,0.4,1c0.3,0.3,0.7,0.4,1,0.4
		c0.9,0,1.6-0.7,1.6-1.6l0,0c0-0.4-0.1-0.7-0.4-1C287.7,74.9,287.3,74.8,286.8,74.8z"/>
	<path class="st0" d="M287,81.7c-0.1,0-0.1,0-0.3,0c-0.6,0-1,0.6-0.9,1v14.4h2V81.8c-0.1,0-0.3-0.1-0.4-0.1
		C287.4,81.7,287.3,81.7,287,81.7z"/>
	<path class="st0" d="M304.2,82.5c-0.6-0.4-1.3-0.9-2-1c-0.9-0.3-1.9-0.4-2.7-0.3c-1.2,0-2.3,0.1-3.5,0.6c-1,0.4-1.9,1-2.7,1.7
		c-0.7,0.7-1.3,1.6-1.7,2.6c-0.4,1.2-0.6,2.3-0.6,3.5s0.1,2.3,0.7,3.5c0.4,1,1,1.7,1.7,2.4c0.7,0.7,1.7,1.2,2.6,1.6
		c1,0.3,2.2,0.6,3.2,0.6c0.7,0,1.3,0,2-0.1c0.6-0.1,1.2-0.3,1.6-0.4c0.4-0.1,0.9-0.3,1.2-0.6c0.3-0.1,0.6-0.3,0.7-0.4l-0.9-1.4
		c-0.6,0.3-1.2,0.6-1.7,0.9c-0.9,0.3-1.7,0.4-2.7,0.4c-1.6,0.1-3.2-0.4-4.3-1.3c-1.2-0.9-1.9-2.3-2-3.7l0,0c0.6,0,1.2,0,1.7,0.1
		c0.6,0,1.2,0,1.9,0c1.4,0,2.9-0.1,4.3-0.3c1-0.1,1.9-0.6,2.7-1c0.6-0.3,1.2-0.9,1.4-1.4c0.3-0.6,0.4-1.3,0.4-1.9
		c0-0.7-0.1-1.3-0.4-1.9C305.2,83.5,304.8,83,304.2,82.5z M303.5,87.1c-0.3,0.4-0.6,0.9-1.2,1c-0.7,0.3-1.4,0.6-2.2,0.7
		c-1.2,0.1-2.3,0.3-3.5,0.3c-0.6,0-1.2,0-1.7,0c-0.6,0-1,0-1.6-0.1l0,0c0-0.9,0.1-1.6,0.4-2.3s0.7-1.4,1.2-2c0.6-0.6,1.2-1,1.9-1.4
		c0.9-0.3,1.7-0.6,2.6-0.6c0.6,0,1,0,1.6,0.1c0.4,0.1,1,0.3,1.4,0.6c0.4,0.3,0.7,0.6,1,1c0.3,0.4,0.4,1,0.3,1.4
		C303.8,86.3,303.7,86.7,303.5,87.1z"/>
	<path class="st0" d="M321.2,83.1c-0.7-0.6-1.4-1-2.3-1.3c-1-0.3-2-0.4-3-0.4c-1,0-2,0.1-3,0.4c-0.9,0.3-1.6,0.7-2.3,1.3
		c-0.6,0.6-1.2,1.3-1.4,2.2c-0.3,0.9-0.6,1.7-0.4,2.7v9.2h2v-8.6c-0.1-1.4,0.4-2.9,1.3-4c1-1,2.4-1.6,3.9-1.4
		c1.4-0.1,2.9,0.4,3.9,1.4c0.9,1.2,1.4,2.6,1.3,4v8.6l0,0h2V88c0-0.9-0.1-1.9-0.4-2.7C322.2,84.4,321.8,83.7,321.2,83.1z"/>
	<path class="st0" d="M334,95.3c-0.6,0.1-1.2,0.3-1.7,0.3c-0.9,0-1.7-0.1-2.3-0.7c-0.7-0.6-1-1.6-0.9-2.4v-9.1l0,0h6.5
		c0-0.1,0.1-0.3,0.1-0.4c0-0.1,0-0.3,0-0.4c0-0.3-0.1-0.6-0.3-0.7c-0.3-0.3-0.6-0.3-0.9-0.3h-5.5v-4c-0.1,0-0.3-0.1-0.4-0.1
		c-0.1,0-0.4-0.1-0.6-0.1s-0.1,0-0.3,0c-0.6,0-1,0.6-0.9,1v14.4c0,0.6,0.1,1.3,0.3,1.9c0.1,0.6,0.4,1,0.9,1.4c0.4,0.4,0.9,0.7,1.4,1
		c0.7,0.3,1.4,0.3,2.2,0.3c0.6,0,1,0,1.6-0.1c0.4-0.1,0.9-0.1,1.3-0.3c0.3-0.1,0.6-0.3,1-0.4c0.1-0.1,0.4-0.3,0.6-0.4l-0.9-1.3
		C334.9,95,334.4,95.2,334,95.3z"/>
	<path class="st0" d="M351,90c-0.4-0.4-1-0.7-1.7-1c-0.9-0.3-1.7-0.4-2.6-0.6l-3.6-0.4c-0.9,0-1.7-0.3-2.4-0.7
		c-0.6-0.4-0.9-1-0.9-1.7c0-0.9,0.4-1.7,1.3-2c1.2-0.4,2.3-0.7,3.5-0.6c0.9,0,1.6,0,2.3,0.3c0.6,0.1,1.2,0.3,1.7,0.6
		c0.4,0.1,0.7,0.3,1.2,0.6c0.1,0.1,0.4,0.3,0.6,0.4c0.1-0.1,0.3-0.3,0.4-0.4c0.1-0.1,0.3-0.4,0.3-0.7c0-0.4-0.3-0.9-0.9-1.2l0,0
		c-0.7-0.3-1.4-0.6-2.2-0.7c-1.2-0.3-2.3-0.4-3.5-0.4s-2.2,0.1-3.3,0.4c-0.7,0.1-1.4,0.6-2.2,1c-0.4,0.4-0.9,0.9-1.2,1.4
		s-0.3,1-0.3,1.6c0,1.2,0.4,2.2,1.3,2.9c1.2,0.9,2.4,1.3,3.9,1.4l3.3,0.4c1,0,2,0.3,3,0.9c0.6,0.4,0.9,1.2,0.7,1.9
		c0,0.4-0.1,0.9-0.4,1.3c-0.3,0.3-0.6,0.6-1,0.9c-0.4,0.3-1,0.4-1.6,0.4c-0.6,0.1-1.3,0.1-1.9,0.1c-0.9,0-1.6,0-2.4-0.3
		c-0.7-0.1-1.3-0.3-2-0.4c-0.4-0.1-1-0.3-1.4-0.6l-0.7-0.3l-0.9,1.6c0.3,0.1,0.4,0.3,0.7,0.4c0.6,0.3,1,0.4,1.6,0.6
		c0.7,0.3,1.6,0.4,2.3,0.6c1,0.1,1.9,0.3,2.9,0.3s2-0.1,3-0.3c0.7-0.1,1.4-0.6,2.2-1c1.6-1.2,2.2-3.2,1.4-4.9
		C351.7,90.7,351.4,90.3,351,90z"/>
	<path class="st0" d="M375.1,81.7h-9.8v-1c-0.1-0.4-0.1-1,0-1.4c0.4-2.3,2.6-3.9,4.9-3.5c0.4,0,0.7,0,1.2,0.1c0.4,0,0.9,0.1,1.2,0.1
		c0.4,0.1,0.7,0.1,1,0.3c0.3,0.1,0.6,0.3,0.9,0.4c0.1-0.1,0.3-0.3,0.4-0.4c0.1-0.1,0.1-0.3,0.1-0.6c0-0.3,0-0.4-0.1-0.6
		s-0.3-0.3-0.4-0.4c-0.4-0.3-1-0.4-1.4-0.4c-0.9-0.1-1.9-0.3-2.7-0.3c-0.9,0-1.7,0.1-2.6,0.3c-0.7,0.1-1.4,0.6-2.2,1
		c-0.6,0.4-1.2,1.2-1.4,1.9c-0.4,0.9-0.6,1.9-0.6,2.9v16.8h2V83.4h9.1v13.5l0,0h2V82.8c0-0.4-0.1-0.7-0.4-1
		C375.9,81.7,375.6,81.7,375.1,81.7z"/>
	<path class="st0" d="M389.8,81.5c-0.9-0.3-1.9-0.4-2.7-0.4c-1.7-0.1-3.5,0.4-4.7,1.4c-1.2,1.2-1.7,2.6-1.6,4.2v10.2h2v-9.2
		c0-0.7,0-1.4,0.3-2c0.1-0.6,0.4-1,0.7-1.6c0.4-0.4,0.9-0.7,1.4-0.9c0.7-0.3,1.4-0.3,2.2-0.3c0.6,0,1.3,0,1.9,0.3
		c0.4,0.1,0.9,0.3,1.3,0.4c0.1-0.1,0.3-0.3,0.3-0.4c0.1-0.1,0.1-0.4,0.1-0.6l0,0C391,82.2,390.7,81.8,389.8,81.5z"/>
	<path class="st0" d="M405.6,90c-0.4-0.4-1-0.7-1.7-1c-0.9-0.3-1.7-0.4-2.6-0.6l-3.6-0.4c-0.9,0-1.7-0.3-2.4-0.7
		c-0.6-0.4-0.9-1-0.9-1.7c0-0.9,0.4-1.7,1.3-2c1.2-0.4,2.3-0.7,3.5-0.6c0.9,0,1.6,0,2.3,0.3c0.6,0.1,1.2,0.3,1.7,0.6
		c0.4,0.1,0.7,0.3,1.2,0.6c0.1,0.1,0.4,0.3,0.6,0.4c0.1-0.1,0.3-0.3,0.4-0.4c0.1-0.1,0.3-0.4,0.3-0.7c0-0.4-0.3-0.9-0.9-1.2l0,0
		c-0.7-0.3-1.4-0.6-2.2-0.7c-1.2-0.3-2.3-0.4-3.5-0.4c-1.2,0-2.2,0.1-3.3,0.4c-0.7,0.1-1.4,0.6-2.2,1c-0.4,0.4-0.9,0.9-1.2,1.4
		c-0.3,0.6-0.3,1-0.3,1.6c0,1.2,0.4,2.2,1.3,2.9c1.2,0.9,2.4,1.3,3.9,1.4l3.3,0.4c1,0,2,0.3,3,0.9c0.6,0.4,0.9,1.2,0.7,1.9
		c0,0.4-0.1,0.9-0.4,1.3c-0.3,0.3-0.6,0.6-1,0.9c-0.4,0.3-1,0.4-1.6,0.4c-0.6,0.1-1.3,0.1-1.9,0.1c-0.9,0-1.6,0-2.4-0.3
		c-0.7-0.1-1.3-0.3-2-0.4c-0.4-0.1-1-0.3-1.4-0.6l-0.7-0.3l-0.9,1.6c0.3,0.1,0.4,0.3,0.7,0.4c0.6,0.3,1,0.4,1.6,0.6
		c0.7,0.3,1.6,0.4,2.3,0.6c1,0.1,1.9,0.3,2.9,0.3s2-0.1,3-0.3c0.7-0.1,1.4-0.6,2.2-1c1.2-0.7,1.7-2,1.7-3.3c0-0.6-0.1-1-0.3-1.6
		C406.3,90.7,405.9,90.3,405.6,90z"/>
	<path class="st0" d="M418.1,94.8c-0.4,0.3-0.9,0.4-1.3,0.6c-0.6,0.1-1.2,0.3-1.7,0.3c-0.9,0-1.7-0.1-2.3-0.7
		c-0.7-0.6-1-1.6-0.9-2.4v-9.1l0,0h6.5c0-0.1,0.1-0.3,0.1-0.4c0-0.1,0-0.3,0-0.4c0-0.3-0.1-0.6-0.3-0.7c-0.3-0.3-0.6-0.3-0.9-0.3
		H412v-4c-0.1,0-0.3-0.1-0.4-0.1c-0.1,0-0.4-0.1-0.6-0.1s-0.1,0-0.3,0c-0.6,0-1,0.6-0.9,1v14.4c0,0.6,0.1,1.3,0.3,1.9s0.4,1,0.9,1.4
		c0.4,0.4,1,0.7,1.4,1c0.7,0.3,1.4,0.3,2.2,0.3c0.6,0,1,0,1.6-0.1c0.4-0.1,0.9-0.1,1.3-0.3c0.3-0.1,0.6-0.3,1-0.4
		c0.1-0.1,0.4-0.3,0.6-0.4L418.1,94.8z"/>
	<path class="st0" d="M41.9,97.8c-25-6.3-40.1-31.8-33.8-57C12.4,24.3,25.3,11.3,41.9,7V1.1C13.6,7.6-4.1,35.6,2.3,64
		s34.5,46,62.9,39.6c19.7-4.5,35.1-19.8,39.6-39.6h-5.9C92.5,89,67.1,104.3,41.9,97.8z"/>
	<path class="st0" d="M98.8,64L98.8,64L98.8,64z"/>
	<path class="st0" d="M120.4,4c-0.4-0.3-0.9-0.4-1.3-0.6l0,0c-1-0.3-1.9-0.4-2.9-0.4c-1.4,0-2.9,0.3-4.2,1.2c-1.2,0.9-2,2-2.3,3.5
		l-5.6,23c-5.3-10.1-12.7-19-21.6-25.9c-1.2-0.7-2.6-1-3.9-1c-1.4,0-2.7,0.4-4,1.2c-1.6,0.9-2.6,2.4-3,4.2L61.2,50.9h5.2
		c2.9,0,5.3-1.9,6-4.7L80,16.4c10.9,8.5,18.1,21,20.1,34.7h3.7c2.9,0,5.3-1.9,6-4.7l10.5-42.1V4z"/>
	<path class="st0" d="M160.4,29c1.2-1.4,1.9-3.2,2.3-5c0.4-1.7,0.4-3.5,0.1-5c-0.4-1.6-1.3-3-2.4-4.2l0,0c-1.4-1.3-3-2.3-4.9-2.9
		c-2.3-0.7-4.9-1.2-7.3-1c-3.2,0-6.3,0.4-9.3,1.4c-2.9,1-5.8,2.4-8.2,4.3c-2.4,1.9-4.6,4-6.3,6.6c-1.7,2.6-3,5.5-3.9,8.5
		c-0.9,2.9-1,5.8-0.4,8.8c0.4,2.4,1.6,4.6,3.2,6.5c1.6,1.9,3.7,3.2,6,4c2.6,0.9,5.5,1.4,8.2,1.3c2,0,4.2-0.1,6.2-0.4
		c7.8-1.4,10.8-6.5,9.6-10.1l-0.1-0.4l-0.4,0.1c-0.4,0.1-0.9,0.4-1.7,0.7c-0.7,0.3-1.6,0.6-2.6,0.9c-1.2,0.3-2.2,0.6-3.3,0.7
		c-1.3,0.1-2.6,0.3-3.9,0.3c-3.2,0.3-6.2-0.6-8.8-2.3c-1.4-1.2-2.3-2.9-2.3-4.7c0-0.4,0.3-0.7,0.7-0.9c0,0,0,0,0.1,0
		c0.6,0,1.2,0,1.7,0c1,0,2,0,3,0c3.9,0,7.9-0.3,11.8-0.9c2.7-0.4,5.5-1.3,7.9-2.4C157.5,32.1,159.1,30.6,160.4,29z M153.1,23.7
		c-0.1,0.7-0.6,1.4-1,2c-0.6,0.7-1.4,1.3-2.3,1.7c-1.4,0.6-2.9,1-4.5,1.3c-2.4,0.4-4.9,0.6-7.3,0.4h-3.5c-0.7,0-1.4,0-2.2,0
		c-0.4,0-0.7-0.3-0.7-0.7c0-0.1,0-0.1,0-0.3c1-2.6,2.6-4.7,4.7-6.6c1.3-1,2.7-1.9,4.3-2.6c1.7-0.7,3.5-1,5.3-1
		c2-0.1,3.9,0.4,5.6,1.4C153.1,20.7,153.5,22.3,153.1,23.7z"/>
	<path class="st0" d="M273,41.3l-0.4,0.1c-0.4,0.1-0.9,0.4-1.7,0.7c-0.7,0.3-1.6,0.6-2.6,0.9c-1.2,0.3-2.2,0.6-3.3,0.7
		c-1.3,0.1-2.6,0.3-3.9,0.3c-3.2,0.3-6.2-0.6-8.8-2.3c-1.4-1.2-2.3-2.9-2.3-4.7c0-0.4,0.3-0.7,0.7-0.9c0,0,0,0,0.1,0
		c0.6,0,1.2,0,1.7,0c1,0,2,0,3,0c3.9,0,7.9-0.3,11.8-0.9c2.7-0.4,5.5-1.3,7.9-2.4c1.9-0.9,3.6-2.3,4.9-3.9c1.2-1.4,1.9-3.2,2.3-5
		c0.4-1.7,0.4-3.5,0.1-5c-0.4-1.6-1.3-3-2.4-4.2l0,0c-1.4-1.3-3-2.3-4.9-2.9c-2.3-0.7-4.9-1.2-7.3-1c-3.2,0-6.3,0.4-9.3,1.4
		c-2.9,1-5.8,2.4-8.2,4.3c-2.4,1.9-4.6,4-6.3,6.6s-3,5.5-3.9,8.5c-0.9,2.9-1,5.8-0.4,8.8c0.4,2.4,1.6,4.6,3.2,6.5
		c1.6,1.9,3.7,3.2,6,4c2.6,0.9,5.5,1.4,8.2,1.3c2,0,4.2-0.1,6.2-0.4c7.8-1.4,10.8-6.5,9.6-10.1V41.3z M251.6,28.3
		c1-2.6,2.6-4.7,4.7-6.6c1.3-1,2.7-1.9,4.3-2.6c1.7-0.7,3.5-1,5.3-1c2-0.1,3.9,0.4,5.6,1.4c1.3,0.9,1.9,2.6,1.3,4
		c-0.1,0.7-0.6,1.4-1,2c-0.6,0.7-1.4,1.3-2.3,1.7c-1.4,0.6-2.9,1-4.5,1.3c-2.4,0.4-4.9,0.6-7.2,0.4h-3.5c-0.7,0-1.4,0-2.2,0
		C251.9,29,251.6,28.7,251.6,28.3C251.4,28.6,251.4,28.5,251.6,28.3z"/>
	<path class="st0" d="M232.6,14.8L232.6,14.8c-1.4-1.3-3.2-2.3-5-2.9c-2.2-0.7-4.6-1-6.9-1c-3.3,0-6.5,0.6-9.5,1.7
		c-2.7,1.2-5.2,2.7-7.3,4.9c-1-2.2-2.7-3.9-4.9-4.9c-2.7-1.3-5.8-1.9-8.8-1.9c-2.4,0-5,0.3-7.5,1c-2.3,0.6-4.5,1.6-6.5,2.9
		c-2,1.3-3.7,2.9-5,4.7c-1.4,2-2.4,4.2-3,6.6l-6.3,25.2h5.2c2.9,0,5.3-1.9,6-4.7l4.3-17.5c0.6-2.9,2-5.5,4.3-7.3
		c2-1.4,4.6-2.3,7-2.2c2.3-0.1,4.5,0.7,6,2.4c1.3,1.6,1.6,4.3,0.7,7.9l-5.3,21.4h5.2c2.9,0,5.3-1.9,6-4.7l4.2-16.7
		c0.6-3.2,2.2-5.9,4.6-7.9c2-1.6,4.6-2.4,7.2-2.4c2.2-0.1,4.5,0.6,6,2.2c1.2,1.4,1.4,3.9,0.6,7.3l-5.3,22.4h5.2c2.9,0,5.3-1.9,6-4.7
		L235,26c0.6-2.2,0.7-4.5,0.3-6.6C234.8,17.7,233.9,16.1,232.6,14.8z"/>
	<path class="st0" d="M287.1,51.6c2.9,0,5.3-1.9,6-4.7l4.5-18c1.6-6.2,5.2-9.1,11.4-9.1c1.4,0,2.9,0.1,4.3,0.6c1,0.3,2,0.7,3,1.2
		l0.1,0.1l0.3-0.1c0.7-0.4,1.3-1,1.9-1.6c0.7-0.7,1.3-1.7,1.6-2.7c0.6-1.9-0.4-3.9-2.3-4.5l0,0c-2.6-1-5.3-1.6-8.1-1.4
		c-4.9-0.1-9.8,1.2-14,3.9c-3.9,2.7-6.5,6.6-7.5,11.2l-6.3,25.2H287.1z"/>
	<path class="st0" d="M358.4,20.3c-0.4-2-1.6-3.9-3.3-5.2c-1.9-1.4-3.9-2.4-6.2-2.9c-2.9-0.6-5.8-1-8.6-0.9c-2.3,0-4.5,0.1-6.8,0.4
		c-1.6,0.3-3.2,0.7-4.6,1.3c-1,0.4-2,1.2-2.9,2c-0.6,0.7-1,1.4-1.3,2.3c-0.3,1-0.1,2,0.3,2.9c0.3,0.6,0.6,1,1,1.6l0.1,0.1l0.3-0.1
		c1.3-0.7,2.6-1.3,4-1.6c2.4-0.7,5-1,7.5-1c1.6,0,3.3,0.1,4.9,0.4c1.2,0.1,2.4,0.6,3.5,1.3c0.9,0.6,1.4,1.6,1.7,2.6
		c0.3,1.3,0.3,2.6-0.1,3.9c-0.9-0.1-2-0.1-3.6-0.3c-1.9-0.1-3.7-0.1-5.8-0.1c-3.2,0-6.3,0.1-9.3,0.7c-2.4,0.4-4.7,1.3-6.8,2.4
		c-1.9,1-3.3,2.4-4.5,4.2c-0.9,1.6-1.6,3.5-2,5.3c-0.4,1.6-0.6,3.2-0.3,4.7c0.3,1.6,1,3.2,2.3,4.2c1.7,1.4,3.6,2.3,5.8,2.9
		c3.2,0.9,6.5,1.3,9.8,1.4c2.2,0.1,3.9,0,5.9,0c2-0.1,5.9-0.6,7-0.7c2.6-0.6,6.2-2.2,6.8-4.6l4.7-19.3
		C358.9,25.6,358.9,22.8,358.4,20.3L358.4,20.3z M344.5,42.6c-0.4,1.6-1.7,2.6-3.2,2.9l0,0c-2,0.1-3.9,0.3-5.9,0.3l0,0
		c-1.7,0-3.6-0.1-5.3-0.4c-1.2-0.1-2.2-0.6-3-1.2c-0.6-0.4-1-1-1.2-1.7c-0.1-0.7-0.1-1.6,0.1-2.4c0.4-2,1.7-3.6,3.5-4.6
		c2.6-1.2,5.3-1.6,8.2-1.4c2.2,0,4.3,0.1,6.5,0.3c1.2,0.1,2,0.3,2.6,0.4L344.5,42.6z"/>
</g>
</svg>
